<svg xmlns="http://www.w3.org/2000/svg" xmlns:xlink="http://www.w3.org/1999/xlink" width="181" zoomAndPan="magnify" viewBox="0 0 135.75 38.249999" height="51" preserveAspectRatio="xMidYMid meet" version="1.2"><defs><clipPath id="1f65b4f991"><path d="M 3.09375 1.558594 L 38 1.558594 L 38 36.132812 L 3.09375 36.132812 Z M 3.09375 1.558594 "/></clipPath><clipPath id="473e7af69e"><path d="M 88.089844 7.761719 L 92.796875 7.761719 L 92.796875 12.46875 L 88.089844 12.46875 Z M 88.089844 7.761719 "/></clipPath><clipPath id="21e8b4e10f"><path d="M 90.445312 7.761719 C 89.144531 7.761719 88.089844 8.8125 88.089844 10.113281 C 88.089844 11.414062 89.144531 12.46875 90.445312 12.46875 C 91.746094 12.46875 92.796875 11.414062 92.796875 10.113281 C 92.796875 8.8125 91.746094 7.761719 90.445312 7.761719 Z M 90.445312 7.761719 "/></clipPath></defs><g id="e586bb6ea3"><g clip-rule="nonzero" clip-path="url(#1f65b4f991)"><path style=" stroke:none;fill-rule:nonzero;fill:#aea17e;fill-opacity:1;" d="M 37.4375 18.84375 C 37.4375 19.410156 37.410156 19.976562 37.355469 20.539062 C 37.300781 21.101562 37.21875 21.664062 37.109375 22.21875 C 37 22.773438 36.863281 23.320312 36.699219 23.863281 C 36.535156 24.40625 36.347656 24.9375 36.132812 25.460938 C 35.914062 25.984375 35.675781 26.496094 35.410156 26.992188 C 35.144531 27.492188 34.855469 27.976562 34.542969 28.449219 C 34.230469 28.917969 33.898438 29.375 33.542969 29.8125 C 33.183594 30.25 32.808594 30.667969 32.410156 31.066406 C 32.011719 31.46875 31.597656 31.847656 31.160156 32.207031 C 30.726562 32.566406 30.277344 32.902344 29.808594 33.21875 C 29.339844 33.53125 28.859375 33.824219 28.363281 34.089844 C 27.867188 34.355469 27.359375 34.597656 26.839844 34.816406 C 26.320312 35.03125 25.792969 35.222656 25.253906 35.386719 C 24.714844 35.550781 24.171875 35.6875 23.621094 35.800781 C 23.070312 35.910156 22.511719 35.992188 21.953125 36.046875 C 21.394531 36.101562 20.832031 36.132812 20.269531 36.132812 C 19.707031 36.132812 19.148438 36.101562 18.589844 36.046875 C 18.027344 35.992188 17.472656 35.910156 16.921875 35.800781 C 16.371094 35.6875 15.824219 35.550781 15.289062 35.386719 C 14.75 35.222656 14.21875 35.03125 13.699219 34.816406 C 13.183594 34.597656 12.675781 34.355469 12.179688 34.089844 C 11.683594 33.824219 11.199219 33.53125 10.734375 33.21875 C 10.265625 32.902344 9.816406 32.566406 9.378906 32.207031 C 8.945312 31.847656 8.527344 31.46875 8.132812 31.066406 C 7.734375 30.667969 7.355469 30.25 7 29.8125 C 6.644531 29.375 6.308594 28.917969 5.996094 28.449219 C 5.683594 27.976562 5.394531 27.492188 5.128906 26.992188 C 4.867188 26.496094 4.625 25.984375 4.410156 25.460938 C 4.195312 24.9375 4.007812 24.40625 3.84375 23.863281 C 3.679688 23.320312 3.542969 22.773438 3.433594 22.21875 C 3.324219 21.664062 3.242188 21.101562 3.1875 20.539062 C 3.132812 19.976562 3.105469 19.410156 3.105469 18.84375 C 3.105469 18.277344 3.132812 17.714844 3.1875 17.152344 C 3.242188 16.585938 3.324219 16.027344 3.433594 15.472656 C 3.542969 14.917969 3.679688 14.367188 3.84375 13.828125 C 4.007812 13.285156 4.195312 12.753906 4.410156 12.230469 C 4.625 11.707031 4.867188 11.195312 5.128906 10.695312 C 5.394531 10.195312 5.683594 9.710938 5.996094 9.242188 C 6.308594 8.769531 6.644531 8.316406 7 7.878906 C 7.355469 7.441406 7.734375 7.023438 8.132812 6.621094 C 8.527344 6.222656 8.945312 5.84375 9.378906 5.484375 C 9.816406 5.125 10.265625 4.785156 10.734375 4.472656 C 11.199219 4.15625 11.683594 3.867188 12.179688 3.601562 C 12.675781 3.332031 13.183594 3.089844 13.699219 2.875 C 14.21875 2.660156 14.75 2.46875 15.289062 2.304688 C 15.824219 2.140625 16.371094 2 16.921875 1.890625 C 17.472656 1.78125 18.027344 1.699219 18.589844 1.640625 C 19.148438 1.585938 19.707031 1.558594 20.269531 1.558594 C 20.832031 1.558594 21.394531 1.585938 21.953125 1.640625 C 22.511719 1.699219 23.070312 1.78125 23.621094 1.890625 C 24.171875 2 24.714844 2.140625 25.253906 2.304688 C 25.792969 2.46875 26.320312 2.660156 26.839844 2.875 C 27.359375 3.089844 27.867188 3.332031 28.363281 3.601562 C 28.859375 3.867188 29.339844 4.15625 29.808594 4.472656 C 30.277344 4.785156 30.726562 5.125 31.160156 5.484375 C 31.597656 5.84375 32.011719 6.222656 32.410156 6.621094 C 32.808594 7.023438 33.183594 7.441406 33.542969 7.878906 C 33.898438 8.316406 34.230469 8.769531 34.542969 9.242188 C 34.855469 9.710938 35.144531 10.195312 35.410156 10.695312 C 35.675781 11.195312 35.914062 11.707031 36.132812 12.230469 C 36.347656 12.753906 36.535156 13.285156 36.699219 13.828125 C 36.863281 14.367188 37 14.917969 37.109375 15.472656 C 37.21875 16.027344 37.300781 16.585938 37.355469 17.152344 C 37.410156 17.714844 37.4375 18.277344 37.4375 18.84375 Z M 37.4375 18.84375 "/></g><path style=" stroke:none;fill-rule:nonzero;fill:#ffffff;fill-opacity:1;" d="M 15.507812 27.417969 C 16.488281 27.582031 17.445312 27.503906 18.386719 27.199219 C 19.667969 26.78125 20.808594 26.109375 21.890625 25.316406 C 22.578125 24.8125 23.25 24.285156 23.957031 23.8125 C 25.144531 23.015625 26.621094 23.007812 27.683594 23.753906 C 27.847656 23.867188 27.996094 24.011719 28.125 24.164062 C 28.179688 24.222656 28.203125 24.382812 28.164062 24.429688 C 28.101562 24.5 27.964844 24.5625 27.871094 24.546875 C 27.265625 24.4375 26.648438 24.394531 26.089844 24.679688 C 25.484375 24.988281 24.910156 25.359375 24.34375 25.734375 C 23.859375 26.050781 23.40625 26.410156 22.910156 26.773438 C 23.125 26.886719 23.304688 26.984375 23.492188 27.089844 C 23.800781 26.855469 24.109375 26.59375 24.441406 26.371094 C 25.195312 25.867188 26.007812 25.617188 26.910156 25.910156 C 27.574219 26.125 27.960938 26.675781 27.90625 27.328125 C 27.867188 27.792969 27.621094 28.15625 27.261719 28.4375 C 26.59375 28.957031 25.820312 29.179688 24.992188 29.269531 C 23.511719 29.429688 22.175781 29.027344 20.941406 28.222656 C 20.796875 28.128906 20.703125 28.140625 20.5625 28.210938 C 19.167969 28.929688 17.707031 29.371094 16.125 29.304688 C 15.1875 29.261719 14.308594 29.054688 13.550781 28.460938 C 12.988281 28.019531 12.75 27.367188 12.945312 26.757812 C 13.136719 26.140625 13.613281 25.828125 14.207031 25.714844 C 14.683594 25.625 15.171875 25.601562 15.65625 25.5625 C 17.039062 25.460938 18.117188 24.792969 19.042969 23.796875 C 19.972656 22.800781 20.113281 21.640625 19.847656 20.367188 C 19.78125 20.054688 19.746094 19.734375 19.722656 19.414062 C 19.714844 19.296875 19.761719 19.164062 19.820312 19.058594 C 19.851562 19 19.972656 18.945312 20.035156 18.957031 C 20.476562 19.058594 20.894531 18.992188 21.277344 18.765625 C 22.304688 18.152344 23.085938 17.324219 23.414062 16.140625 C 23.679688 15.171875 23.480469 14.289062 22.820312 13.53125 C 22.609375 13.289062 22.382812 13.058594 22.152344 12.835938 C 21.5 12.214844 20.808594 11.621094 20.417969 10.714844 C 20.035156 11.671875 19.285156 12.257812 18.617188 12.914062 C 18.382812 13.144531 18.144531 13.375 17.945312 13.636719 C 17.152344 14.652344 17.167969 15.738281 17.726562 16.851562 C 18.019531 17.433594 18.445312 17.914062 18.957031 18.3125 C 19.132812 18.449219 19.191406 18.570312 19.113281 18.800781 C 18.949219 19.296875 19.050781 19.804688 19.132812 20.304688 C 19.265625 21.132812 19.339844 21.972656 18.984375 22.753906 C 18.386719 24.050781 17.3125 24.757812 15.953125 25.035156 C 15.128906 25.203125 14.332031 25.105469 13.5625 24.738281 C 13.265625 24.597656 12.921875 24.550781 12.601562 24.457031 C 12.511719 24.429688 12.363281 24.378906 12.359375 24.332031 C 12.351562 24.21875 12.378906 24.074219 12.453125 23.988281 C 13.023438 23.3125 13.945312 23.09375 14.765625 23.429688 C 15.039062 23.542969 15.296875 23.691406 15.570312 23.800781 C 16.847656 24.300781 18.160156 23.449219 18.3125 22.078125 C 18.441406 20.945312 17.972656 20.035156 17.414062 19.132812 C 17.03125 18.515625 16.609375 17.914062 16.285156 17.265625 C 15.523438 15.734375 15.8125 14.148438 17.039062 12.96875 C 17.574219 12.453125 18.140625 11.972656 18.699219 11.484375 C 19.476562 10.804688 19.886719 9.941406 20.023438 8.925781 C 20.039062 8.8125 20.054688 8.679688 20.121094 8.589844 C 20.191406 8.492188 20.320312 8.378906 20.421875 8.378906 C 20.527344 8.378906 20.664062 8.492188 20.726562 8.589844 C 20.796875 8.714844 20.816406 8.878906 20.839844 9.027344 C 21.007812 10.234375 21.664062 11.121094 22.585938 11.871094 C 23.160156 12.335938 23.734375 12.832031 24.195312 13.40625 C 25.136719 14.570312 25.21875 15.886719 24.566406 17.214844 C 24.242188 17.878906 23.796875 18.484375 23.40625 19.117188 C 23.261719 19.355469 23.082031 19.582031 22.992188 19.839844 C 22.910156 20.066406 22.847656 20.351562 22.914062 20.570312 C 23.171875 21.417969 22.929688 22.152344 22.503906 22.859375 C 21.179688 25.074219 19.210938 26.421875 16.785156 27.152344 C 16.578125 27.214844 16.359375 27.25 16.144531 27.292969 C 15.933594 27.335938 15.71875 27.375 15.507812 27.417969 Z M 15.507812 27.417969 "/><path style=" stroke:none;fill-rule:nonzero;fill:#ffffff;fill-opacity:1;" d="M 22.007812 15.644531 C 22 16.566406 21.316406 17.257812 20.414062 17.253906 C 19.523438 17.25 18.847656 16.53125 18.855469 15.605469 C 18.863281 14.652344 19.542969 13.980469 20.492188 13.988281 C 21.359375 13.996094 22.015625 14.707031 22.007812 15.644531 Z M 22.007812 15.644531 "/><g style="fill:#ffffff;fill-opacity:1;"><g transform="translate(38.991345, 22.508065)"><path style="stroke:none" d="M 5.328125 -5.046875 L 5.328125 -2.859375 C 5.328125 -2.441406 5.332031 -2.078125 5.34375 -1.765625 C 5.351562 -1.460938 5.363281 -1.195312 5.375 -0.96875 C 5.394531 -0.75 5.421875 -0.5625 5.453125 -0.40625 C 5.484375 -0.257812 5.507812 -0.132812 5.53125 -0.03125 L 5.53125 0 L 3.78125 0 L 3.78125 -0.03125 C 3.8125 -0.132812 3.835938 -0.257812 3.859375 -0.40625 C 3.890625 -0.5625 3.910156 -0.75 3.921875 -0.96875 C 3.941406 -1.195312 3.957031 -1.460938 3.96875 -1.765625 C 3.976562 -2.078125 3.984375 -2.441406 3.984375 -2.859375 L 3.984375 -4.890625 L 0.71875 -9.34375 C 0.601562 -9.5 0.488281 -9.640625 0.375 -9.765625 C 0.269531 -9.890625 0.164062 -10 0.0625 -10.09375 C -0.03125 -10.1875 -0.113281 -10.265625 -0.1875 -10.328125 C -0.269531 -10.398438 -0.332031 -10.445312 -0.375 -10.46875 L -0.375 -10.5 L 1.84375 -10.5 C 1.84375 -10.382812 1.890625 -10.195312 1.984375 -9.9375 C 2.078125 -9.6875 2.25 -9.390625 2.5 -9.046875 L 4.90625 -5.75 L 7.265625 -9.1875 C 7.347656 -9.3125 7.425781 -9.4375 7.5 -9.5625 C 7.582031 -9.6875 7.660156 -9.804688 7.734375 -9.921875 C 7.804688 -10.046875 7.863281 -10.15625 7.90625 -10.25 C 7.945312 -10.351562 7.96875 -10.4375 7.96875 -10.5 L 9.390625 -10.5 L 9.390625 -10.46875 C 9.285156 -10.375 9.140625 -10.234375 8.953125 -10.046875 C 8.773438 -9.867188 8.582031 -9.628906 8.375 -9.328125 Z M 5.328125 -5.046875 "/></g></g><g style="fill:#ffffff;fill-opacity:1;"><g transform="translate(48.163358, 22.508065)"><path style="stroke:none" d="M 5.84375 -10.671875 C 6.65625 -10.671875 7.40625 -10.535156 8.09375 -10.265625 C 8.789062 -10.003906 9.390625 -9.632812 9.890625 -9.15625 C 10.390625 -8.675781 10.78125 -8.097656 11.0625 -7.421875 C 11.34375 -6.753906 11.484375 -6.007812 11.484375 -5.1875 C 11.484375 -4.726562 11.429688 -4.273438 11.328125 -3.828125 C 11.222656 -3.378906 11.066406 -2.953125 10.859375 -2.546875 C 10.648438 -2.148438 10.394531 -1.78125 10.09375 -1.4375 C 9.789062 -1.101562 9.441406 -0.8125 9.046875 -0.5625 C 8.660156 -0.3125 8.234375 -0.117188 7.765625 0.015625 C 7.296875 0.160156 6.789062 0.234375 6.25 0.234375 C 5.4375 0.234375 4.679688 0.101562 3.984375 -0.15625 C 3.296875 -0.425781 2.703125 -0.800781 2.203125 -1.28125 C 1.703125 -1.757812 1.304688 -2.332031 1.015625 -3 C 0.734375 -3.664062 0.59375 -4.410156 0.59375 -5.234375 C 0.59375 -5.703125 0.644531 -6.160156 0.75 -6.609375 C 0.863281 -7.054688 1.023438 -7.484375 1.234375 -7.890625 C 1.441406 -8.296875 1.695312 -8.664062 2 -9 C 2.300781 -9.34375 2.644531 -9.640625 3.03125 -9.890625 C 3.414062 -10.140625 3.84375 -10.332031 4.3125 -10.46875 C 4.789062 -10.601562 5.300781 -10.671875 5.84375 -10.671875 Z M 6.25 -0.4375 C 6.789062 -0.4375 7.285156 -0.53125 7.734375 -0.71875 C 8.191406 -0.914062 8.582031 -1.195312 8.90625 -1.5625 C 9.226562 -1.9375 9.476562 -2.390625 9.65625 -2.921875 C 9.84375 -3.460938 9.9375 -4.070312 9.9375 -4.75 C 9.9375 -5.5 9.847656 -6.195312 9.671875 -6.84375 C 9.492188 -7.488281 9.234375 -8.046875 8.890625 -8.515625 C 8.554688 -8.984375 8.132812 -9.347656 7.625 -9.609375 C 7.113281 -9.878906 6.519531 -10.015625 5.84375 -10.015625 C 5.300781 -10.015625 4.800781 -9.914062 4.34375 -9.71875 C 3.894531 -9.53125 3.507812 -9.253906 3.1875 -8.890625 C 2.863281 -8.523438 2.609375 -8.078125 2.421875 -7.546875 C 2.242188 -7.015625 2.15625 -6.410156 2.15625 -5.734375 C 2.15625 -4.984375 2.238281 -4.285156 2.40625 -3.640625 C 2.582031 -2.992188 2.84375 -2.429688 3.1875 -1.953125 C 3.53125 -1.484375 3.957031 -1.113281 4.46875 -0.84375 C 4.976562 -0.570312 5.570312 -0.4375 6.25 -0.4375 Z M 6.25 -0.4375 "/></g><g transform="translate(60.258401, 22.508065)"><path style="stroke:none" d="M 10.296875 -1.234375 C 10.296875 -1.179688 10.285156 -1.125 10.265625 -1.0625 C 10.253906 -1 10.226562 -0.953125 10.1875 -0.921875 C 9.96875 -0.753906 9.726562 -0.597656 9.46875 -0.453125 C 9.21875 -0.316406 8.941406 -0.195312 8.640625 -0.09375 C 8.347656 0.0078125 8.023438 0.0859375 7.671875 0.140625 C 7.328125 0.203125 6.957031 0.234375 6.5625 0.234375 C 5.675781 0.234375 4.867188 0.101562 4.140625 -0.15625 C 3.410156 -0.425781 2.78125 -0.800781 2.25 -1.28125 C 1.726562 -1.757812 1.320312 -2.332031 1.03125 -3 C 0.738281 -3.664062 0.59375 -4.410156 0.59375 -5.234375 C 0.59375 -5.703125 0.648438 -6.160156 0.765625 -6.609375 C 0.890625 -7.054688 1.066406 -7.484375 1.296875 -7.890625 C 1.523438 -8.296875 1.804688 -8.664062 2.140625 -9 C 2.484375 -9.34375 2.867188 -9.640625 3.296875 -9.890625 C 3.734375 -10.140625 4.210938 -10.332031 4.734375 -10.46875 C 5.253906 -10.601562 5.816406 -10.671875 6.421875 -10.671875 C 6.660156 -10.671875 6.898438 -10.660156 7.140625 -10.640625 C 7.378906 -10.617188 7.617188 -10.585938 7.859375 -10.546875 C 8.097656 -10.503906 8.328125 -10.453125 8.546875 -10.390625 C 8.773438 -10.335938 8.988281 -10.273438 9.1875 -10.203125 L 9.6875 -8.84375 L 9.625 -8.8125 C 9.4375 -8.988281 9.21875 -9.148438 8.96875 -9.296875 C 8.71875 -9.441406 8.453125 -9.566406 8.171875 -9.671875 C 7.890625 -9.785156 7.59375 -9.867188 7.28125 -9.921875 C 6.96875 -9.984375 6.65625 -10.015625 6.34375 -10.015625 C 5.726562 -10.015625 5.160156 -9.914062 4.640625 -9.71875 C 4.128906 -9.53125 3.691406 -9.253906 3.328125 -8.890625 C 2.960938 -8.523438 2.675781 -8.078125 2.46875 -7.546875 C 2.257812 -7.015625 2.15625 -6.410156 2.15625 -5.734375 C 2.15625 -4.984375 2.253906 -4.285156 2.453125 -3.640625 C 2.648438 -3.003906 2.941406 -2.453125 3.328125 -1.984375 C 3.710938 -1.515625 4.191406 -1.144531 4.765625 -0.875 C 5.347656 -0.613281 6.023438 -0.484375 6.796875 -0.484375 C 7.140625 -0.484375 7.441406 -0.507812 7.703125 -0.5625 C 7.972656 -0.613281 8.203125 -0.679688 8.390625 -0.765625 C 8.578125 -0.847656 8.71875 -0.9375 8.8125 -1.03125 C 8.90625 -1.125 8.953125 -1.210938 8.953125 -1.296875 L 8.953125 -1.578125 C 8.953125 -1.921875 8.945312 -2.210938 8.9375 -2.453125 C 8.925781 -2.703125 8.910156 -2.921875 8.890625 -3.109375 C 8.878906 -3.296875 8.859375 -3.453125 8.828125 -3.578125 C 8.804688 -3.710938 8.78125 -3.835938 8.75 -3.953125 L 8.75 -3.984375 L 10.5 -3.984375 L 10.5 -3.953125 C 10.46875 -3.847656 10.4375 -3.722656 10.40625 -3.578125 C 10.382812 -3.441406 10.363281 -3.28125 10.34375 -3.09375 C 10.320312 -2.90625 10.304688 -2.679688 10.296875 -2.421875 C 10.296875 -2.160156 10.296875 -1.863281 10.296875 -1.53125 Z M 10.296875 -1.234375 "/></g><g transform="translate(71.393752, 22.508065)"><path style="stroke:none" d="M 0.53125 -0.03125 C 0.582031 -0.101562 0.640625 -0.21875 0.703125 -0.375 C 0.773438 -0.53125 0.832031 -0.722656 0.875 -0.953125 C 0.925781 -1.296875 0.984375 -1.679688 1.046875 -2.109375 C 1.117188 -2.535156 1.1875 -2.984375 1.25 -3.453125 C 1.320312 -3.921875 1.394531 -4.398438 1.46875 -4.890625 C 1.539062 -5.378906 1.609375 -5.863281 1.671875 -6.34375 C 1.734375 -6.820312 1.796875 -7.28125 1.859375 -7.71875 C 1.921875 -8.164062 1.976562 -8.570312 2.03125 -8.9375 C 2.082031 -9.300781 2.125 -9.617188 2.15625 -9.890625 C 2.1875 -10.160156 2.207031 -10.363281 2.21875 -10.5 L 3.15625 -10.5 L 7.75 -1.890625 L 12.328125 -10.5 L 13.015625 -10.5 L 14.21875 -1.796875 C 14.257812 -1.523438 14.296875 -1.289062 14.328125 -1.09375 C 14.367188 -0.90625 14.410156 -0.738281 14.453125 -0.59375 C 14.492188 -0.457031 14.53125 -0.34375 14.5625 -0.25 C 14.601562 -0.164062 14.640625 -0.09375 14.671875 -0.03125 L 14.671875 0 L 12.828125 0 L 12.828125 -0.03125 C 12.847656 -0.0820312 12.867188 -0.164062 12.890625 -0.28125 C 12.910156 -0.40625 12.921875 -0.554688 12.921875 -0.734375 C 12.921875 -0.796875 12.914062 -0.859375 12.90625 -0.921875 C 12.90625 -0.992188 12.898438 -1.066406 12.890625 -1.140625 L 11.96875 -8.15625 L 7.640625 -0.03125 L 7.140625 -0.09375 L 2.796875 -8.234375 C 2.617188 -7.078125 2.46875 -6.007812 2.34375 -5.03125 C 2.289062 -4.601562 2.238281 -4.179688 2.1875 -3.765625 C 2.132812 -3.347656 2.085938 -2.957031 2.046875 -2.59375 C 2.003906 -2.238281 1.96875 -1.921875 1.9375 -1.640625 C 1.914062 -1.367188 1.90625 -1.164062 1.90625 -1.03125 C 1.90625 -0.863281 1.910156 -0.71875 1.921875 -0.59375 C 1.929688 -0.46875 1.941406 -0.359375 1.953125 -0.265625 C 1.960938 -0.171875 1.976562 -0.0820312 2 0 L 0.53125 0 Z M 0.53125 -0.03125 "/></g><g transform="translate(86.668231, 22.508065)"><path style="stroke:none" d="M 1.109375 -0.03125 C 1.140625 -0.132812 1.164062 -0.257812 1.1875 -0.40625 C 1.21875 -0.5625 1.242188 -0.75 1.265625 -0.96875 C 1.285156 -1.195312 1.296875 -1.460938 1.296875 -1.765625 C 1.304688 -2.078125 1.3125 -2.441406 1.3125 -2.859375 L 1.3125 -7.625 C 1.3125 -8.039062 1.304688 -8.40625 1.296875 -8.71875 C 1.296875 -9.03125 1.285156 -9.296875 1.265625 -9.515625 C 1.242188 -9.742188 1.21875 -9.929688 1.1875 -10.078125 C 1.164062 -10.234375 1.140625 -10.363281 1.109375 -10.46875 L 1.109375 -10.5 L 2.859375 -10.5 L 2.859375 -10.46875 C 2.828125 -10.363281 2.796875 -10.234375 2.765625 -10.078125 C 2.742188 -9.929688 2.722656 -9.742188 2.703125 -9.515625 C 2.691406 -9.296875 2.679688 -9.03125 2.671875 -8.71875 C 2.660156 -8.40625 2.65625 -8.039062 2.65625 -7.625 L 2.65625 -2.859375 C 2.65625 -2.441406 2.660156 -2.078125 2.671875 -1.765625 C 2.679688 -1.460938 2.691406 -1.195312 2.703125 -0.96875 C 2.722656 -0.75 2.742188 -0.5625 2.765625 -0.40625 C 2.796875 -0.257812 2.828125 -0.132812 2.859375 -0.03125 L 2.859375 0 L 1.109375 0 Z M 1.109375 -0.03125 "/></g><g transform="translate(90.646189, 22.508065)"><path style="stroke:none" d="M 1.453125 -10.5 L 9 -2.46875 L 9 -7.625 C 9 -8.039062 8.992188 -8.40625 8.984375 -8.71875 C 8.972656 -9.03125 8.957031 -9.296875 8.9375 -9.515625 C 8.914062 -9.742188 8.890625 -9.929688 8.859375 -10.078125 C 8.835938 -10.234375 8.816406 -10.363281 8.796875 -10.46875 L 8.796875 -10.5 L 10.09375 -10.5 L 10.09375 -10.46875 C 10.0625 -10.363281 10.03125 -10.234375 10 -10.078125 C 9.976562 -9.929688 9.957031 -9.742188 9.9375 -9.515625 C 9.925781 -9.296875 9.914062 -9.03125 9.90625 -8.71875 C 9.894531 -8.40625 9.890625 -8.039062 9.890625 -7.625 L 9.890625 0.140625 L 9.625 0.140625 L 2.09375 -7.875 L 2.09375 -2.859375 C 2.09375 -2.441406 2.09375 -2.078125 2.09375 -1.765625 C 2.101562 -1.460938 2.117188 -1.195312 2.140625 -0.96875 C 2.160156 -0.75 2.179688 -0.5625 2.203125 -0.40625 C 2.234375 -0.257812 2.265625 -0.132812 2.296875 -0.03125 L 2.296875 0 L 0.984375 0 L 0.984375 -0.03125 C 1.015625 -0.132812 1.039062 -0.257812 1.0625 -0.40625 C 1.09375 -0.5625 1.117188 -0.75 1.140625 -0.96875 C 1.160156 -1.195312 1.175781 -1.460938 1.1875 -1.765625 C 1.195312 -2.078125 1.203125 -2.441406 1.203125 -2.859375 L 1.203125 -7.625 C 1.203125 -8.039062 1.195312 -8.40625 1.1875 -8.71875 C 1.175781 -9.03125 1.160156 -9.296875 1.140625 -9.515625 C 1.117188 -9.742188 1.09375 -9.929688 1.0625 -10.078125 C 1.039062 -10.234375 1.015625 -10.363281 0.984375 -10.46875 L 0.984375 -10.5 Z M 1.453125 -10.5 "/></g><g transform="translate(101.730259, 22.508065)"><path style="stroke:none" d="M 2.65625 -9.875 C 2.644531 -9.320312 2.632812 -8.789062 2.625 -8.28125 C 2.613281 -8.0625 2.609375 -7.835938 2.609375 -7.609375 C 2.609375 -7.378906 2.601562 -7.148438 2.59375 -6.921875 C 2.59375 -6.703125 2.59375 -6.488281 2.59375 -6.28125 C 2.59375 -6.082031 2.59375 -5.90625 2.59375 -5.75 C 2.59375 -5.425781 2.59375 -5.03125 2.59375 -4.5625 C 2.601562 -4.101562 2.609375 -3.628906 2.609375 -3.140625 C 2.617188 -2.648438 2.628906 -2.179688 2.640625 -1.734375 C 2.660156 -1.285156 2.679688 -0.910156 2.703125 -0.609375 C 2.773438 -0.597656 2.867188 -0.585938 2.984375 -0.578125 C 3.097656 -0.566406 3.21875 -0.554688 3.34375 -0.546875 C 3.46875 -0.546875 3.585938 -0.539062 3.703125 -0.53125 C 3.828125 -0.53125 3.929688 -0.53125 4.015625 -0.53125 C 4.359375 -0.53125 4.707031 -0.550781 5.0625 -0.59375 C 5.425781 -0.644531 5.773438 -0.734375 6.109375 -0.859375 C 6.441406 -0.984375 6.753906 -1.15625 7.046875 -1.375 C 7.347656 -1.601562 7.609375 -1.890625 7.828125 -2.234375 C 8.054688 -2.585938 8.234375 -3.007812 8.359375 -3.5 C 8.484375 -4 8.546875 -4.585938 8.546875 -5.265625 C 8.546875 -6.015625 8.453125 -6.679688 8.265625 -7.265625 C 8.085938 -7.847656 7.820312 -8.335938 7.46875 -8.734375 C 7.125 -9.140625 6.691406 -9.445312 6.171875 -9.65625 C 5.660156 -9.863281 5.070312 -9.96875 4.40625 -9.96875 C 4.28125 -9.96875 4.132812 -9.960938 3.96875 -9.953125 C 3.800781 -9.941406 3.632812 -9.929688 3.46875 -9.921875 C 3.300781 -9.921875 3.144531 -9.910156 3 -9.890625 C 2.863281 -9.878906 2.75 -9.875 2.65625 -9.875 Z M 1.046875 -10.53125 C 1.160156 -10.53125 1.265625 -10.523438 1.359375 -10.515625 C 1.441406 -10.515625 1.523438 -10.507812 1.609375 -10.5 C 1.703125 -10.5 1.773438 -10.5 1.828125 -10.5 C 1.921875 -10.5 2.078125 -10.503906 2.296875 -10.515625 C 2.515625 -10.523438 2.757812 -10.535156 3.03125 -10.546875 C 3.3125 -10.554688 3.601562 -10.566406 3.90625 -10.578125 C 4.207031 -10.585938 4.488281 -10.59375 4.75 -10.59375 C 5.457031 -10.59375 6.128906 -10.503906 6.765625 -10.328125 C 7.410156 -10.148438 7.972656 -9.859375 8.453125 -9.453125 C 8.941406 -9.054688 9.328125 -8.535156 9.609375 -7.890625 C 9.890625 -7.242188 10.03125 -6.445312 10.03125 -5.5 C 10.03125 -4.8125 9.957031 -4.195312 9.8125 -3.65625 C 9.664062 -3.113281 9.457031 -2.632812 9.1875 -2.21875 C 8.914062 -1.8125 8.59375 -1.457031 8.21875 -1.15625 C 7.84375 -0.863281 7.429688 -0.617188 6.984375 -0.421875 C 6.535156 -0.234375 6.050781 -0.09375 5.53125 0 C 5.019531 0.0820312 4.492188 0.125 3.953125 0.125 C 3.753906 0.125 3.515625 0.113281 3.234375 0.09375 C 2.960938 0.0820312 2.6875 0.0664062 2.40625 0.046875 C 2.132812 0.0351562 1.875 0.0234375 1.625 0.015625 C 1.375 0.00390625 1.179688 0 1.046875 0 L 1.046875 -0.03125 C 1.078125 -0.132812 1.101562 -0.257812 1.125 -0.40625 C 1.15625 -0.5625 1.179688 -0.75 1.203125 -0.96875 C 1.222656 -1.195312 1.238281 -1.460938 1.25 -1.765625 C 1.257812 -2.078125 1.265625 -2.441406 1.265625 -2.859375 L 1.265625 -7.625 C 1.265625 -8.039062 1.257812 -8.40625 1.25 -8.71875 C 1.238281 -9.039062 1.222656 -9.3125 1.203125 -9.53125 C 1.179688 -9.757812 1.15625 -9.953125 1.125 -10.109375 C 1.101562 -10.265625 1.078125 -10.394531 1.046875 -10.5 Z M 1.046875 -10.53125 "/></g><g transform="translate(112.440709, 22.508065)"><path style="stroke:none" d="M 2.59375 -2.859375 C 2.59375 -2.441406 2.597656 -2.078125 2.609375 -1.765625 C 2.617188 -1.460938 2.632812 -1.195312 2.65625 -0.96875 C 2.675781 -0.75 2.695312 -0.5625 2.71875 -0.40625 C 2.75 -0.257812 2.78125 -0.132812 2.8125 -0.03125 L 2.8125 0 L 1.046875 0 L 1.046875 -0.03125 C 1.078125 -0.132812 1.101562 -0.257812 1.125 -0.40625 C 1.15625 -0.5625 1.175781 -0.75 1.1875 -0.96875 C 1.207031 -1.195312 1.222656 -1.460938 1.234375 -1.765625 C 1.253906 -2.078125 1.265625 -2.441406 1.265625 -2.859375 L 1.265625 -7.625 C 1.265625 -8.039062 1.253906 -8.40625 1.234375 -8.71875 C 1.222656 -9.03125 1.207031 -9.296875 1.1875 -9.515625 C 1.175781 -9.742188 1.15625 -9.929688 1.125 -10.078125 C 1.101562 -10.234375 1.078125 -10.363281 1.046875 -10.46875 L 1.046875 -10.5 L 1.359375 -10.46875 C 1.453125 -10.457031 1.554688 -10.453125 1.671875 -10.453125 C 1.785156 -10.453125 1.898438 -10.453125 2.015625 -10.453125 C 2.210938 -10.453125 2.472656 -10.472656 2.796875 -10.515625 C 3.117188 -10.566406 3.53125 -10.59375 4.03125 -10.59375 C 4.5 -10.59375 4.929688 -10.523438 5.328125 -10.390625 C 5.734375 -10.265625 6.082031 -10.082031 6.375 -9.84375 C 6.664062 -9.601562 6.890625 -9.304688 7.046875 -8.953125 C 7.210938 -8.597656 7.296875 -8.191406 7.296875 -7.734375 C 7.296875 -7.390625 7.25 -7.066406 7.15625 -6.765625 C 7.070312 -6.460938 6.945312 -6.1875 6.78125 -5.9375 C 6.625 -5.695312 6.429688 -5.484375 6.203125 -5.296875 C 5.972656 -5.109375 5.710938 -4.953125 5.421875 -4.828125 L 8 -1.21875 C 8.125 -1.03125 8.238281 -0.867188 8.34375 -0.734375 C 8.457031 -0.609375 8.5625 -0.5 8.65625 -0.40625 C 8.757812 -0.3125 8.859375 -0.234375 8.953125 -0.171875 C 9.046875 -0.109375 9.144531 -0.0625 9.25 -0.03125 L 9.25 0 L 7.125 0 C 7.113281 -0.09375 7.066406 -0.210938 6.984375 -0.359375 C 6.898438 -0.515625 6.804688 -0.671875 6.703125 -0.828125 L 4.109375 -4.484375 C 3.992188 -4.472656 3.878906 -4.460938 3.765625 -4.453125 C 3.660156 -4.453125 3.546875 -4.453125 3.421875 -4.453125 C 3.285156 -4.453125 3.148438 -4.453125 3.015625 -4.453125 C 2.878906 -4.460938 2.738281 -4.484375 2.59375 -4.515625 Z M 2.59375 -5.078125 C 2.726562 -5.054688 2.863281 -5.035156 3 -5.015625 C 3.132812 -5.003906 3.265625 -5 3.390625 -5 C 3.753906 -5 4.085938 -5.050781 4.390625 -5.15625 C 4.691406 -5.269531 4.945312 -5.4375 5.15625 -5.65625 C 5.375 -5.882812 5.539062 -6.164062 5.65625 -6.5 C 5.78125 -6.84375 5.84375 -7.238281 5.84375 -7.6875 C 5.84375 -8.050781 5.800781 -8.378906 5.71875 -8.671875 C 5.632812 -8.972656 5.507812 -9.226562 5.34375 -9.4375 C 5.175781 -9.644531 4.96875 -9.804688 4.71875 -9.921875 C 4.46875 -10.035156 4.179688 -10.09375 3.859375 -10.09375 C 3.515625 -10.09375 3.242188 -10.070312 3.046875 -10.03125 C 2.847656 -10 2.695312 -9.96875 2.59375 -9.9375 Z M 2.59375 -5.078125 "/></g><g transform="translate(121.305034, 22.508065)"><path style="stroke:none" d="M 8.3125 0 L 8.3125 -0.03125 C 8.320312 -0.0507812 8.328125 -0.0859375 8.328125 -0.140625 C 8.335938 -0.191406 8.34375 -0.234375 8.34375 -0.265625 C 8.34375 -0.421875 8.320312 -0.585938 8.28125 -0.765625 C 8.238281 -0.953125 8.160156 -1.179688 8.046875 -1.453125 L 7.15625 -3.453125 C 6.882812 -3.460938 6.519531 -3.46875 6.0625 -3.46875 C 5.613281 -3.46875 5.125 -3.46875 4.59375 -3.46875 C 4.207031 -3.46875 3.832031 -3.46875 3.46875 -3.46875 C 3.113281 -3.46875 2.789062 -3.460938 2.5 -3.453125 L 1.65625 -1.515625 C 1.582031 -1.335938 1.503906 -1.140625 1.421875 -0.921875 C 1.335938 -0.703125 1.296875 -0.484375 1.296875 -0.265625 C 1.296875 -0.203125 1.300781 -0.148438 1.3125 -0.109375 C 1.320312 -0.0664062 1.332031 -0.0390625 1.34375 -0.03125 L 1.34375 0 L -0.140625 0 L -0.140625 -0.03125 C -0.0546875 -0.125 0.046875 -0.285156 0.171875 -0.515625 C 0.304688 -0.753906 0.453125 -1.050781 0.609375 -1.40625 L 4.8125 -10.71875 L 5.390625 -10.71875 L 9.375 -1.765625 C 9.46875 -1.554688 9.5625 -1.351562 9.65625 -1.15625 C 9.757812 -0.957031 9.851562 -0.78125 9.9375 -0.625 C 10.03125 -0.46875 10.109375 -0.335938 10.171875 -0.234375 C 10.242188 -0.128906 10.289062 -0.0625 10.3125 -0.03125 L 10.3125 0 Z M 3.5625 -4.09375 C 3.84375 -4.09375 4.132812 -4.09375 4.4375 -4.09375 C 4.738281 -4.101562 5.03125 -4.109375 5.3125 -4.109375 C 5.601562 -4.109375 5.878906 -4.109375 6.140625 -4.109375 C 6.398438 -4.109375 6.640625 -4.113281 6.859375 -4.125 L 4.796875 -8.78125 L 2.78125 -4.09375 Z M 3.5625 -4.09375 "/></g></g><g clip-rule="nonzero" clip-path="url(#473e7af69e)"><g clip-rule="nonzero" clip-path="url(#21e8b4e10f)"><path style=" stroke:none;fill-rule:nonzero;fill:#aea17e;fill-opacity:1;" d="M 88.089844 7.761719 L 92.796875 7.761719 L 92.796875 12.46875 L 88.089844 12.46875 Z M 88.089844 7.761719 "/></g></g></g></svg>